<?xml version="1.0" encoding="UTF-8"?>
<svg xmlns="http://www.w3.org/2000/svg" id="Logo" width="369.339" height="126.822" viewBox="0 0 369.339 126.822">
  <g id="Group_2246" data-name="Group 2246">
    <g id="Group_2241" data-name="Group 2241" transform="translate(152.061 12.141)">
      <path id="Path_10604" data-name="Path 10604" d="M296.093,66.178c0,2.667-1.459,4.9-5.153,4.9h-5.46v6.944h-2.11V61.3h7.67C294.634,61.3,296.093,63.491,296.093,66.178ZM290.508,69.4c2.492,0,3.394-1.309,3.394-3.218,0-1.985-.908-3.193-3.318-3.193h-5.1V69.4Z" transform="translate(-283.37 -60.423)" fill="#39023b"></path>
      <path id="Path_10605" data-name="Path 10605" d="M306.18,73.948c0-3.75,2.085-6.668,6.336-6.668,4.226,0,6.311,2.943,6.311,6.668,0,3.776-2.085,6.718-6.311,6.718C308.271,80.667,306.18,77.749,306.18,73.948Zm6.336,5.084c2.843,0,4.276-1.534,4.276-5.053,0-3.544-1.434-5.053-4.276-5.053s-4.3,1.509-4.3,5.053C308.221,77.5,309.68,79.032,312.516,79.032Z" transform="translate(-291.898 -62.659)" fill="#39023b"></path>
      <path id="Path_10606" data-name="Path 10606" d="M346.741,67.93h1.96l-3.826,12.579h-2.868l-3.619-10.187-3.6,10.187h-2.868L328.07,67.93h2.11L333.423,79,337.4,67.93h2.085L343.46,79Z" transform="translate(-300.082 -62.902)" fill="#39023b"></path>
      <path id="Path_10607" data-name="Path 10607" d="M373,76.39h1.835c-.25,1.91-1.709,4.276-5.886,4.276-4.327,0-6.236-2.918-6.236-6.718,0-3.75,2.06-6.668,6.236-6.668,3.776,0,5.911,2.592,5.911,6.261a5.113,5.113,0,0,1-.05.883H364.695c.15,3.444,1.81,4.7,4.327,4.7C371.495,79.133,372.622,77.974,373,76.39Zm-8.246-3.469H372.9c-.1-2.893-1.584-4.1-3.926-4.1C366.586,68.82,365.027,69.954,364.751,72.921Z" transform="translate(-313.033 -62.659)" fill="#39023b"></path>
      <path id="Path_10608" data-name="Path 10608" d="M392.973,67.65v1.985h-.526c-3.725-.125-4.527,2.592-4.527,6.136V80.4h-2.01V67.825h2.01v3.318a4.7,4.7,0,0,1,4.6-3.494Z" transform="translate(-321.707 -62.798)" fill="#39023b"></path>
      <path id="Path_10609" data-name="Path 10609" d="M421.917,62.984H411.655V68.72h9.5v1.659h-9.5v7.645H409.57V61.3h12.347Z" transform="translate(-330.553 -60.423)" fill="#39023b"></path>
      <path id="Path_10610" data-name="Path 10610" d="M441.909,67.93h2.01V80.509h-2.01V77.316c-.758,2.242-2.242,3.594-4.677,3.594-3.168,0-4.6-1.659-4.6-4.953V67.93h2.01v7.8c0,2.793,1.233,3.519,3.168,3.519,2.617,0,4.1-2.342,4.1-6.512v-4.8Z" transform="translate(-339.175 -62.902)" fill="#39023b"></path>
      <path id="Path_10611" data-name="Path 10611" d="M465.217,76.39h1.835c-.25,1.91-1.709,4.276-5.886,4.276-4.326,0-6.236-2.918-6.236-6.718,0-3.75,2.06-6.668,6.236-6.668,3.776,0,5.911,2.592,5.911,6.261a5.11,5.11,0,0,1-.05.883H456.915c.15,3.444,1.81,4.7,4.327,4.7C463.708,79.133,464.835,77.974,465.217,76.39Zm-8.252-3.469h8.152c-.1-2.893-1.584-4.1-3.926-4.1C458.8,68.82,457.241,69.954,456.965,72.921Z" transform="translate(-347.512 -62.659)" fill="#39023b"></path>
      <path id="Path_10612" data-name="Path 10612" d="M478.35,77.507V59.9h2.01V77.507Z" transform="translate(-356.268 -59.9)" fill="#39023b"></path>
      <path id="Path_10613" data-name="Path 10613" d="M487.53,76.057c.15,1.709,1.108,3.068,4,3.068,2.216,0,3.093-.783,3.093-2.185,0-1.208-.7-1.86-2.292-2.085l-2.918-.426c-2.185-.3-3.419-1.459-3.419-3.394,0-2.342,1.86-3.776,5.028-3.776,3.293,0,5.178,1.659,5.335,4.026h-1.985c-.125-1.309-1.083-2.492-3.394-2.492-2.135,0-3.018.858-3.018,2.085,0,.883.451,1.634,2.035,1.86l2.667.376c2.893.426,3.951,1.659,3.951,3.725,0,2.567-1.784,3.826-5.134,3.826-4.1,0-5.76-1.96-5.81-4.6h1.86Z" transform="translate(-359.005 -62.652)" fill="#39023b"></path>
    </g>
    <g id="Group_2242" data-name="Group 2242" transform="translate(151.754 39.997)">
      <path id="Path_10614" data-name="Path 10614" d="M282.88,107.885V105.8h2.592v2.085Zm.276,14.639V109.945h2.01v12.579Z" transform="translate(-282.88 -104.917)" fill="#39023b"></path>
      <path id="Path_10615" data-name="Path 10615" d="M303.034,116.735v8.021h-2.01v-7.8c0-2.692-1.183-3.494-3.018-3.494-2.793,0-4.276,2.166-4.276,6.487v4.8h-2.01V112.177h2.01v3.293a4.85,4.85,0,0,1,4.827-3.7C301.7,111.776,303.034,113.492,303.034,116.735Z" transform="translate(-286.185 -107.149)" fill="#39023b"></path>
      <path id="Path_10616" data-name="Path 10616" d="M319.666,111.78c3.776,0,5.66,2.085,5.861,5h-1.885a3.6,3.6,0,0,0-3.9-3.369c-2.667,0-4.327,1.434-4.327,5.053,0,3.644,1.609,5.053,4.251,5.053a3.742,3.742,0,0,0,4.1-3.569h1.91c-.15,2.893-2.185,5.209-6.011,5.209-4.126,0-6.286-2.843-6.286-6.693S315.59,111.78,319.666,111.78Z" transform="translate(-294.283 -107.153)" fill="#39023b"></path>
      <path id="Path_10617" data-name="Path 10617" d="M336.92,122V104.39h2.01V122Z" transform="translate(-303.084 -104.39)" fill="#39023b"></path>
      <path id="Path_10618" data-name="Path 10618" d="M354.519,112.43h2.01v12.579h-2.01v-3.193c-.758,2.242-2.242,3.594-4.677,3.594-3.168,0-4.6-1.659-4.6-4.953v-8.021h2.01v7.8c0,2.793,1.233,3.519,3.168,3.519,2.617,0,4.1-2.342,4.1-6.512V112.43Z" transform="translate(-306.195 -107.396)" fill="#39023b"></path>
      <path id="Path_10619" data-name="Path 10619" d="M377.2,104.39h2.01V122H377.2V119.58a4.889,4.889,0,0,1-4.752,2.818c-3.951,0-5.76-2.843-5.76-6.693,0-3.876,1.81-6.693,5.76-6.693A4.859,4.859,0,0,1,377.2,111.8Zm0,11.32c0-3.544-1.684-5.053-4.351-5.053-2.868,0-4.126,1.659-4.126,5.053,0,3.369,1.258,5.053,4.126,5.053C375.518,120.763,377.2,119.254,377.2,115.71Z" transform="translate(-314.215 -104.39)" fill="#39023b"></path>
      <path id="Path_10620" data-name="Path 10620" d="M391.44,107.885V105.8h2.592v2.085Zm.276,14.639V109.945h2.01v12.579Z" transform="translate(-323.468 -104.917)" fill="#39023b"></path>
      <path id="Path_10621" data-name="Path 10621" d="M411.6,116.735v8.021h-2.01v-7.8c0-2.692-1.183-3.494-3.018-3.494-2.793,0-4.276,2.166-4.276,6.487v4.8h-2.01V112.177h2.01v3.293a4.85,4.85,0,0,1,4.827-3.7C410.27,111.776,411.6,113.492,411.6,116.735Z" transform="translate(-326.777 -107.149)" fill="#39023b"></path>
      <path id="Path_10622" data-name="Path 10622" d="M432.948,112.224h2.01v12.6c0,3.344-1.634,5.285-6.211,5.285-3.75,0-5.76-1.634-5.986-4.5h1.985c.15,1.659,1.208,2.918,4,2.918,2.968,0,4.2-1.033,4.2-3.725v-2.717c-.858,1.634-2.417,2.442-4.677,2.442-3.951,0-5.81-2.467-5.81-6.336,0-3.851,1.86-6.311,5.81-6.311a4.854,4.854,0,0,1,4.677,2.517Zm0,5.961c0-3.394-1.534-4.727-4.2-4.727-2.868,0-4.226,1.334-4.226,4.727s1.359,4.752,4.226,4.752C431.414,122.937,432.948,121.6,432.948,118.185Z" transform="translate(-335.065 -107.19)" fill="#39023b"></path>
      <path id="Path_10623" data-name="Path 10623" d="M468.231,105.8h2.06v16.724h-2.06v-7.8H458.5v7.8H456.41V105.8H458.5v7.244h9.736Z" transform="translate(-347.759 -104.917)" fill="#39023b"></path>
      <path id="Path_10624" data-name="Path 10624" d="M492.713,112.43H494.7l-5.911,14.664c-.783,2.01-1.284,2.943-3.544,2.943h-2.392V128.4h3.494l1.384-3.394h-.7L482.05,112.43h2.11l3.851,9.686.426,1.208.376-1.208Z" transform="translate(-357.345 -107.396)" fill="#39023b"></path>
      <path id="Path_10625" data-name="Path 10625" d="M514.343,104.39h2.01V122h-2.01V119.58a4.889,4.889,0,0,1-4.752,2.818c-3.951,0-5.76-2.843-5.76-6.693,0-3.876,1.81-6.693,5.76-6.693a4.859,4.859,0,0,1,4.752,2.793Zm0,11.32c0-3.544-1.684-5.053-4.351-5.053-2.868,0-4.126,1.659-4.126,5.053,0,3.369,1.258,5.053,4.126,5.053C512.652,120.763,514.343,119.254,514.343,115.71Z" transform="translate(-365.488 -104.39)" fill="#39023b"></path>
      <path id="Path_10626" data-name="Path 10626" d="M535.973,112.146v1.985h-.526c-3.725-.125-4.527,2.592-4.527,6.136v4.627h-2.01V112.315h2.01v3.318a4.7,4.7,0,0,1,4.6-3.494h.451Z" transform="translate(-374.865 -107.288)" fill="#39023b"></path>
      <path id="Path_10627" data-name="Path 10627" d="M541.75,118.448c0-3.75,2.085-6.668,6.336-6.668,4.226,0,6.311,2.943,6.311,6.668,0,3.776-2.085,6.718-6.311,6.718C543.841,125.167,541.75,122.249,541.75,118.448Zm6.343,5.078c2.842,0,4.276-1.534,4.276-5.053,0-3.544-1.434-5.053-4.276-5.053s-4.3,1.509-4.3,5.053C543.791,121.992,545.25,123.526,548.093,123.526Z" transform="translate(-379.665 -107.153)" fill="#39023b"></path>
      <path id="Path_10628" data-name="Path 10628" d="M575.868,112.224h2.01v12.6c0,3.344-1.634,5.285-6.211,5.285-3.75,0-5.76-1.634-5.986-4.5h1.985c.15,1.659,1.208,2.918,4,2.918,2.968,0,4.2-1.033,4.2-3.725v-2.717c-.858,1.634-2.417,2.442-4.677,2.442-3.951,0-5.81-2.467-5.81-6.336,0-3.851,1.86-6.311,5.81-6.311a4.854,4.854,0,0,1,4.677,2.517v-2.173Zm0,5.961c0-3.394-1.534-4.727-4.2-4.727-2.868,0-4.226,1.334-4.226,4.727s1.359,4.752,4.226,4.752C574.334,122.937,575.868,121.6,575.868,118.185Z" transform="translate(-388.5 -107.19)" fill="#39023b"></path>
      <path id="Path_10629" data-name="Path 10629" d="M599.417,120.89h1.835c-.251,1.91-1.709,4.276-5.886,4.276-4.326,0-6.236-2.918-6.236-6.718,0-3.75,2.06-6.668,6.236-6.668,3.776,0,5.911,2.592,5.911,6.261a5.122,5.122,0,0,1-.05.883H591.115c.15,3.444,1.809,4.7,4.327,4.7C597.908,123.633,599.035,122.474,599.417,120.89Zm-8.252-3.475h8.152c-.1-2.893-1.584-4.1-3.926-4.1C593,113.314,591.44,114.447,591.165,117.415Z" transform="translate(-397.379 -107.153)" fill="#39023b"></path>
      <path id="Path_10630" data-name="Path 10630" d="M623.634,116.735v8.021h-2.01v-7.8c0-2.692-1.183-3.494-3.018-3.494-2.793,0-4.276,2.166-4.276,6.487v4.8h-2.01V112.177h2.01v3.293a4.85,4.85,0,0,1,4.827-3.7C622.3,111.776,623.634,113.492,623.634,116.735Z" transform="translate(-406.049 -107.149)" fill="#39023b"></path>
    </g>
    <g id="Group_2243" data-name="Group 2243">
      <rect id="Rectangle_992" data-name="Rectangle 992" width="25.364" height="25.364" transform="translate(50.729 50.729)" fill="#39023b"></rect>
      <rect id="Rectangle_993" data-name="Rectangle 993" width="25.364" height="25.364" fill="#39023b"></rect>
      <rect id="Rectangle_994" data-name="Rectangle 994" width="25.364" height="25.364" transform="translate(101.457)" fill="#39023b"></rect>
      <rect id="Rectangle_995" data-name="Rectangle 995" width="25.364" height="25.364" transform="translate(0 50.729)" fill="#39023b"></rect>
      <rect id="Rectangle_996" data-name="Rectangle 996" width="25.364" height="25.364" transform="translate(101.457 50.729)" fill="#39023b"></rect>
      <rect id="Rectangle_997" data-name="Rectangle 997" width="25.364" height="25.364" transform="translate(0 101.457)" fill="#39023b"></rect>
      <rect id="Rectangle_998" data-name="Rectangle 998" width="25.364" height="25.364" transform="translate(101.457 101.457)" fill="#39023b"></rect>
      <path id="Path_10631" data-name="Path 10631" d="M106.384,187.4V162.04H93.705v12.679H81.02V187.4h25.364Z" transform="translate(-55.656 -85.947)" fill="#39023b"></path>
      <path id="Path_10632" data-name="Path 10632" d="M106.384,81.02H81.02V93.7H93.705v12.685h12.679V81.02Z" transform="translate(-55.656 -55.656)" fill="#39023b"></path>
      <path id="Path_10633" data-name="Path 10633" d="M187.4,187.4V174.719H174.725V162.04H162.04V187.4H187.4Z" transform="translate(-85.947 -85.947)" fill="#39023b"></path>
      <path id="Path_10634" data-name="Path 10634" d="M162.04,106.384h12.685V93.7H187.4V81.02H162.04v25.364Z" transform="translate(-85.947 -55.656)" fill="#39023b"></path>
    </g>
    <g id="Group_2245" data-name="Group 2245" transform="translate(152.054 67.822)">
      <g id="Group_2244" data-name="Group 2244" transform="translate(74.064 33.736)">
        <path id="Path_10635" data-name="Path 10635" d="M401.65,202.72h1.565v5.147h6.6V202.72h1.578v12.253h-1.578v-5.685h-6.6v5.685H401.65Z" transform="translate(-401.65 -202.714)" fill="#39023b"></path>
        <path id="Path_10636" data-name="Path 10636" d="M421.631,214.154a4.141,4.141,0,0,1-1.171-3.218v-8.2h1.547v10.788h6.568V202.74h1.534v8.2a4.042,4.042,0,0,1-1.2,3.25,5.487,5.487,0,0,1-3.632,1.027A5.3,5.3,0,0,1,421.631,214.154Z" transform="translate(-408.683 -202.721)" fill="#39023b"></path>
        <path id="Path_10637" data-name="Path 10637" d="M444.008,202.716a4.274,4.274,0,0,1,3.062.958,3.242,3.242,0,0,1,1,2.442,2.5,2.5,0,0,1-1.471,2.429,2.571,2.571,0,0,1,1.484,1.064,3.686,3.686,0,0,1,.476,1.979,3.159,3.159,0,0,1-1.008,2.461,4.532,4.532,0,0,1-3.124.914H439.13V202.71h4.878Zm2.335,5.147v-3.694h-5.666v3.694Zm.52,5.654v-4.2H440.67v4.2Z" transform="translate(-415.663 -202.71)" fill="#39023b"></path>
      </g>
      <path id="Path_10638" data-name="Path 10638" d="M287.893,202.91a7.434,7.434,0,0,1,3.581.689,3.346,3.346,0,0,1,1.615,1.979,11.989,11.989,0,0,1,.4,3.456,12.474,12.474,0,0,1-.388,3.475,3.288,3.288,0,0,1-1.6,1.966,7.545,7.545,0,0,1-3.625.689H283.41V202.91h4.483Zm3.9,10.8v-9.329h-6.837v9.329Z" transform="translate(-283.379 -169.049)" fill="#39023b"></path>
      <path id="Path_10639" data-name="Path 10639" d="M302.25,202.91h8.716v1.471h-7.182v3.682h6.681v1.421h-6.681v4.233h7.182v1.453H302.25Z" transform="translate(-290.423 -169.049)" fill="#39023b"></path>
      <path id="Path_10640" data-name="Path 10640" d="M319.792,213.532a8.893,8.893,0,0,1,0-9.267c.87-1.14,2.36-1.716,4.477-1.716a6.352,6.352,0,0,1,3.788.964,4.6,4.6,0,0,1,1.722,2.987h-1.722v-2.26l-7.676-.019v9.348h7.676v-2.686h1.816a4.98,4.98,0,0,1-1.666,3.287,6.192,6.192,0,0,1-3.938,1.071C322.153,215.248,320.656,214.678,319.792,213.532Z" transform="translate(-296.494 -168.915)" fill="#39023b"></path>
      <path id="Path_10641" data-name="Path 10641" d="M341.771,202.91h2.054l4.183,12.253H346.4l-.933-2.761h-5.353l-.945,2.761h-1.6Zm3.237,8.115-2.223-6.474-2.2,6.474Z" transform="translate(-303.628 -169.049)" fill="#39023b"></path>
      <path id="Path_10642" data-name="Path 10642" d="M361.67,202.91a5.422,5.422,0,0,1,2.4.476,3.27,3.27,0,0,1,1.459,1.3,3.7,3.7,0,0,1,.482,1.885,3.435,3.435,0,0,1-.338,1.54,3,3,0,0,1-1.02,1.158,2.411,2.411,0,0,1,1.033,1.146,4.714,4.714,0,0,1,.326,1.872v2.874h-1.722v-5.084h-6.174v5.084H356.58V202.91Zm2.624,5.76v-4.308H358.12v4.308Z" transform="translate(-310.735 -169.049)" fill="#39023b"></path>
      <path id="Path_10643" data-name="Path 10643" d="M379.148,202.906a4.274,4.274,0,0,1,3.062.958,3.242,3.242,0,0,1,1,2.442,2.5,2.5,0,0,1-1.471,2.429,2.571,2.571,0,0,1,1.484,1.064,3.685,3.685,0,0,1,.476,1.979,3.159,3.159,0,0,1-1.008,2.461,4.533,4.533,0,0,1-3.124.914H374.27V202.9h4.877Zm2.335,5.147v-3.694h-5.666v3.694Zm.526,5.654v-4.2h-6.192v4.2Z" transform="translate(-317.349 -169.045)" fill="#39023b"></path>
      <path id="Path_10644" data-name="Path 10644" d="M295.557,150.24h2.066V167h-3.506l-7.607-13.155c-.426-.808-.783-1.54-1.058-2.191V167H283.36V150.24h3.531l7.614,13.18c.326.582.733,1.409,1.058,2.166V150.24Z" transform="translate(-283.36 -149.357)" fill="#39023b"></path>
      <path id="Path_10645" data-name="Path 10645" d="M320.606,165.359h1.841c-.25,1.916-1.716,4.283-5.9,4.283-4.333,0-6.249-2.924-6.249-6.731,0-3.757,2.066-6.681,6.249-6.681,3.782,0,5.923,2.6,5.923,6.274a5.074,5.074,0,0,1-.05.883H312.291c.15,3.45,1.816,4.715,4.333,4.715C319.091,168.108,320.224,166.949,320.606,165.359Zm-8.271-3.475H320.5c-.1-2.9-1.59-4.107-3.932-4.107C314.176,157.777,312.617,158.91,312.335,161.884Z" transform="translate(-293.432 -151.597)" fill="#39023b"></path>
      <path id="Path_10646" data-name="Path 10646" d="M336.711,167.813c-2.417,0-3.049-.933-3.049-2.949V156.8H331.27v-1.133l2.573-.632.758-2.623h1.083v2.8h4.157v1.59h-4.157v9.379h4.007v1.64h-2.98Z" transform="translate(-301.272 -150.168)" fill="#39023b"></path>
      <path id="Path_10647" data-name="Path 10647" d="M365.709,156.88h1.966l-3.832,12.6h-2.874l-3.631-10.206-3.607,10.206h-2.874L347,156.88h2.116l3.25,11.089,3.982-11.089h2.091l3.982,11.089Z" transform="translate(-307.153 -151.84)" fill="#39023b"></path>
      <path id="Path_10648" data-name="Path 10648" d="M381.71,162.921c0-3.757,2.091-6.681,6.349-6.681,4.233,0,6.324,2.949,6.324,6.681,0,3.782-2.091,6.731-6.324,6.731C383.808,169.652,381.71,166.728,381.71,162.921Zm6.355,5.09c2.849,0,4.283-1.54,4.283-5.065,0-3.556-1.434-5.065-4.283-5.065s-4.308,1.515-4.308,5.065C383.757,166.471,385.216,168.011,388.065,168.011Z" transform="translate(-320.131 -151.6)" fill="#39023b"></path>
      <path id="Path_10649" data-name="Path 10649" d="M412.948,156.6v1.991h-.532c-3.732-.125-4.539,2.6-4.539,6.149v4.64H405.86v-12.6h2.016V160.1a4.711,4.711,0,0,1,4.615-3.506h.457Z" transform="translate(-329.16 -151.731)" fill="#39023b"></path>
      <path id="Path_10650" data-name="Path 10650" d="M430.179,166.474l-4.765-6.073-2.6,2.467v3.607H420.8V148.83h2.016v11.8a12.248,12.248,0,0,1,1.208-1.309l5.673-5.441h2.5v.05l-5.522,5.266,6.048,7.282Z" transform="translate(-334.745 -148.83)" fill="#39023b"></path>
    </g>
  </g>
</svg>
