<svg xmlns="http://www.w3.org/2000/svg" width="133.491" height="84.861" viewBox="0 0 133.491 84.861"><g transform="translate(-2324.514 -189.256)"><path d="M285.322,41.361c-33.416-10.48-59.1-4.785-78.524,1.522a197.285,197.285,0,0,1,75.651,7.851q1.437-4.687,2.873-9.373" transform="translate(2165.637 201.153)" fill="#553b29"/><path d="M299.931,28.41l-.455,3.027c-43.062-11.1-89.552-9.729-127.889,1.666l4.085-9.687c43.136-11.933,86.27-11.576,129.4,1.513l-4.394,2.334c-12.684-3.421-25.653-5.12-38.74-6.117a296.845,296.845,0,0,1,37.989,7.265" transform="translate(2152.929 193.654)" fill="#0094d1" fill-rule="evenodd"/><path d="M182.027,44.7,175.1,33.852c21.228-6.223,42.457-5.433,63.684-2.01-19.35,2.345-38.477,5.685-56.753,12.858" transform="translate(2154.195 198.865)" fill="#5a6aa8" fill-rule="evenodd"/><path d="M178.983,51.248l-2.41-7.232c39.848-18.758,82.16-18.249,117.722-6.83l-.8,3.315c-38.364-9.257-76.915-6.783-114.509,10.747" transform="translate(2154.728 198.845)" fill="#99534a" fill-rule="evenodd"/><path d="M291.287,40.136c-26.14-8.044-51.006-6.747-74.735,2.887a156.922,156.922,0,0,0-37.765,8.464l6.228-6.026c34.556-13.4,70.377-14.792,107.077-7.835Z" transform="translate(2155.527 200.416)" fill="#f27146" fill-rule="evenodd"/><path d="M177.418,34.075l-.4-2.612c38.118-11.96,76.758-13.688,116.217.6l1.406,5.925c-22.959-6.783-45.584-7.9-68.008-5.58-16.53-2.338-32.951-2.16-49.212,1.663" transform="translate(2154.888 196.231)" fill="#f68e34" fill-rule="evenodd"/><path d="M299.326,37.4l-.908-4.844C260.07,21.186,218.289,17.781,175.824,21.507l-4.238,9.535c47.345-14.027,87.721-4.438,127.74,6.357" transform="translate(2152.928 195.562)" fill="#ea663f" fill-rule="evenodd"/><path d="M244.855,21.977a356.606,356.606,0,0,0-69.049-.47l-2.98,6.7-1.185,2.81c5.408-1.6,10.725-2.889,15.962-3.906a244.444,244.444,0,0,1,57.252-5.139" transform="translate(2152.948 195.562)" fill="#167197" fill-rule="evenodd"/><path d="M203.31,23.44c28.583-.851,55.072,5.395,81.332,12.421l-.9-3.8A168.3,168.3,0,0,0,203.31,23.44" transform="translate(2164.378 196.231)" fill="#c64a38" fill-rule="evenodd"/><path d="M180.576,44.454l-1.458-2.281A155.424,155.424,0,0,1,224.6,29.9c4.242.44,8.484,1.018,12.726,1.7-19.35,2.345-38.477,5.685-56.753,12.858" transform="translate(2155.646 199.111)" fill="#4a5274" fill-rule="evenodd"/><path d="M181.731,47.609l2.221-2.149c34.556-13.4,70.377-14.792,107.077-7.835l-.347,1.081c-36.485-8.617-73.129-6.6-108.951,8.9" transform="translate(2156.59 200.416)" fill="#d45d39" fill-rule="evenodd"/><path d="M287.834,4.227l-1.8,5.211h3.572ZM281.9,14.36a.3.3,0,0,1,.018-.1L286.623.924a.366.366,0,0,1,.117-.176.314.314,0,0,1,.195-.061h1.859a.313.313,0,0,1,.195.061.355.355,0,0,1,.117.176l4.649,13.338a.338.338,0,0,1,.018.1.158.158,0,0,1-.116.161.271.271,0,0,1-.093.014h-1.981a.32.32,0,0,1-.2-.059.333.333,0,0,1-.113-.181l-.9-2.629h-5.1l-.9,2.629a.331.331,0,0,1-.112.181.324.324,0,0,1-.2.059H282.1a.279.279,0,0,1-.094-.014.163.163,0,0,1-.086-.061.173.173,0,0,1-.029-.1M266.585,6.729h2.93A2.151,2.151,0,0,0,271,6.21a1.8,1.8,0,0,0,.561-1.368A1.835,1.835,0,0,0,271,3.458a2.141,2.141,0,0,0-1.49-.524h-2.93a.08.08,0,0,0-.054.014.081.081,0,0,0-.015.054V6.66a.057.057,0,0,0,.069.069m7.663,7.772a.251.251,0,0,1-.125.031h-2.244a.368.368,0,0,1-.218-.057.4.4,0,0,1-.133-.177l-2.61-5.323h-2.333a.088.088,0,0,0-.054.014.081.081,0,0,0-.015.054v5.234a.243.243,0,0,1-.254.254h-1.98a.243.243,0,0,1-.254-.254V.941A.255.255,0,0,1,264.1.758a.257.257,0,0,1,.184-.071H269.6a4.6,4.6,0,0,1,3.19,1.17,4,4,0,0,1,1.247,2.984,4.074,4.074,0,0,1-.7,2.345,4.015,4.015,0,0,1-1.883,1.462l2.863,5.546a.278.278,0,0,1,.038.133.2.2,0,0,1-.027.1.207.207,0,0,1-.073.072M249.8,4.227l-1.8,5.211h3.572ZM243.864,14.36a.3.3,0,0,1,.018-.1L248.591.924a.365.365,0,0,1,.117-.176A.316.316,0,0,1,248.9.687h1.859a.313.313,0,0,1,.195.061.367.367,0,0,1,.118.176l4.648,13.338a.339.339,0,0,1,.018.1.171.171,0,0,1-.029.1.169.169,0,0,1-.086.061.284.284,0,0,1-.094.014H253.55a.323.323,0,0,1-.2-.059.331.331,0,0,1-.112-.181l-.9-2.629h-5.1l-.9,2.629a.332.332,0,0,1-.112.181.322.322,0,0,1-.2.059h-1.96a.284.284,0,0,1-.094-.014.163.163,0,0,1-.086-.061.173.173,0,0,1-.029-.1m-15-5.679v3.576a.077.077,0,0,0,.015.054.081.081,0,0,0,.054.015h2.87a2.132,2.132,0,0,0,1.487-.5,1.8,1.8,0,0,0,.542-1.369,1.773,1.773,0,0,0-.543-1.354,2.149,2.149,0,0,0-1.486-.494h-2.87a.075.075,0,0,0-.053.015.072.072,0,0,0-.016.054m.015-2.29a.081.081,0,0,0,.054.015h2.749a2.01,2.01,0,0,0,1.39-.474,1.681,1.681,0,0,0,.518-1.272,1.7,1.7,0,0,0-.517-1.287,1.994,1.994,0,0,0-1.391-.479h-2.749a.075.075,0,0,0-.053.015.072.072,0,0,0-.016.054V6.336a.077.077,0,0,0,.015.054m-2.432,8.072a.255.255,0,0,1-.071-.184V.941a.255.255,0,0,1,.071-.184.251.251,0,0,1,.182-.071h5.113a4.812,4.812,0,0,1,3.2.959,3.458,3.458,0,0,1,1.134,2.75,3.627,3.627,0,0,1-.411,1.772,2.932,2.932,0,0,1-1.159,1.154,2.891,2.891,0,0,1,1.306,1.2,3.713,3.713,0,0,1,.506,1.919,3.8,3.8,0,0,1-1.219,3.054,5.369,5.369,0,0,1-3.562,1.04h-4.912a.251.251,0,0,1-.182-.071m-17.541,0a.255.255,0,0,1-.071-.184V.941a.255.255,0,0,1,.071-.184.252.252,0,0,1,.182-.071h1.982a.245.245,0,0,1,.254.254V12.218a.09.09,0,0,0,.014.054.081.081,0,0,0,.054.015H217.7a.255.255,0,0,1,.184.071.252.252,0,0,1,.071.182v1.738a.243.243,0,0,1-.255.254h-8.609a.252.252,0,0,1-.182-.071m-11.943,0a.255.255,0,0,1-.071-.184V.941a.243.243,0,0,1,.254-.254h1.98a.257.257,0,0,1,.184.071.255.255,0,0,1,.071.184V14.278a.243.243,0,0,1-.255.254h-1.98a.255.255,0,0,1-.184-.071m-16.124-7.39h2.708a2.326,2.326,0,0,0,1.626-.561A2,2,0,0,0,185.78,5a2,2,0,0,0-.608-1.505,2.328,2.328,0,0,0-1.622-.563h-2.708a.08.08,0,0,0-.054.014.081.081,0,0,0-.015.054V7a.077.077,0,0,0,.015.053.079.079,0,0,0,.054.015m-.14,7.39a.255.255,0,0,1-.184.071h-1.98a.243.243,0,0,1-.255-.254V.941a.243.243,0,0,1,.255-.254h5.154A4.738,4.738,0,0,1,187,1.886,4.178,4.178,0,0,1,188.269,5,4.208,4.208,0,0,1,187,8.137a4.723,4.723,0,0,1-3.308,1.2h-2.85a.057.057,0,0,0-.069.069v4.869a.255.255,0,0,1-.071.184" transform="translate(2155.345 188.569)" fill="#4b4b4d" fill-rule="evenodd"/><path d="M285.394,56.437a.1.1,0,0,0,.1-.1V50.456a.054.054,0,0,1,.061-.061h1.882a.094.094,0,0,0,.1-.1v-.638a.1.1,0,0,0-.1-.1h-4.788a.1.1,0,0,0-.1.1v.638a.1.1,0,0,0,.1.1h1.883a.054.054,0,0,1,.06.061v5.881a.1.1,0,0,0,.1.1Zm-12.936-.1a.1.1,0,0,0,.1.1h.637a.1.1,0,0,0,.1-.1V51.194h.031l3.127,5.142a.172.172,0,0,0,.171.1h.648a.1.1,0,0,0,.1-.1V49.655a.1.1,0,0,0-.1-.1h-.637a.1.1,0,0,0-.1.1v5.162H276.5l-3.118-5.162a.165.165,0,0,0-.173-.1h-.646a.1.1,0,0,0-.1.1Zm-9.8,0a.1.1,0,0,0,.1.1h4.14a.1.1,0,0,0,.1-.1V55.7a.1.1,0,0,0-.1-.1h-3.278a.054.054,0,0,1-.061-.061V53.441a.054.054,0,0,1,.061-.061h2.783a.1.1,0,0,0,.1-.1v-.638a.1.1,0,0,0-.1-.1h-2.783a.054.054,0,0,1-.061-.06V50.456a.054.054,0,0,1,.061-.061H266.9a.1.1,0,0,0,.1-.1v-.638a.1.1,0,0,0-.1-.1h-4.14a.1.1,0,0,0-.1.1Zm-11.741,0a.1.1,0,0,0,.1.1h.638a.1.1,0,0,0,.1-.1V51.548h.03l1.712,3.786a.177.177,0,0,0,.192.121h.4a.173.173,0,0,0,.182-.121l1.711-3.786h.03v4.788a.1.1,0,0,0,.1.1h.637a.1.1,0,0,0,.1-.1V49.655a.1.1,0,0,0-.1-.1H256.1a.155.155,0,0,0-.162.1l-2.014,4.637h-.03l-2.055-4.637a.157.157,0,0,0-.162-.1h-.659a.1.1,0,0,0-.1.1Zm-7.591-3.513h-1.538a.054.054,0,0,1-.061-.06V50.456a.054.054,0,0,1,.061-.061h1.538a1.221,1.221,0,1,1,0,2.429m-1.7,3.613a.1.1,0,0,0,.1-.1V53.724a.054.054,0,0,1,.061-.061h1.588a2.058,2.058,0,1,0,0-4.109h-2.45a.1.1,0,0,0-.1.1v6.681a.1.1,0,0,0,.1.1Zm-8.887-.728a1.4,1.4,0,0,1-1.458-1.022,5.861,5.861,0,0,1-.152-1.69,5.861,5.861,0,0,1,.152-1.69,1.557,1.557,0,0,1,2.925,0,5.861,5.861,0,0,1,.152,1.69,5.861,5.861,0,0,1-.152,1.69,1.4,1.4,0,0,1-1.467,1.022m0,.84a2.273,2.273,0,0,0,2.348-1.609A5.889,5.889,0,0,0,235.273,53a5.889,5.889,0,0,0-.182-1.943,2.51,2.51,0,0,0-4.686,0A5.89,5.89,0,0,0,230.223,53a5.89,5.89,0,0,0,.182,1.943,2.269,2.269,0,0,0,2.338,1.609m-11.519-.212a.1.1,0,0,0,.1.1h4.14a.1.1,0,0,0,.1-.1V55.7a.1.1,0,0,0-.1-.1h-3.28a.054.054,0,0,1-.061-.061V49.655a.1.1,0,0,0-.1-.1h-.7a.1.1,0,0,0-.1.1Zm-9.8,0a.1.1,0,0,0,.1.1h4.139a.1.1,0,0,0,.1-.1V55.7a.1.1,0,0,0-.1-.1h-3.278a.054.054,0,0,1-.061-.061V53.441a.054.054,0,0,1,.061-.061h2.783a.094.094,0,0,0,.1-.1v-.638a.1.1,0,0,0-.1-.1h-2.783a.054.054,0,0,1-.061-.06V50.456a.054.054,0,0,1,.061-.061h3.278a.1.1,0,0,0,.1-.1v-.638a.1.1,0,0,0-.1-.1h-4.139a.1.1,0,0,0-.1.1Zm-7.489.1a.129.129,0,0,0,.121-.1l2.217-6.66c.03-.08-.011-.121-.071-.121h-.7a.121.121,0,0,0-.131.1l-1.7,5.314h-.02l-1.761-5.314a.125.125,0,0,0-.142-.1h-.687c-.061,0-.1.041-.072.121l2.228,6.66a.127.127,0,0,0,.121.1Zm-12.1-.1a.1.1,0,0,0,.1.1h4.139a.1.1,0,0,0,.1-.1V55.7a.1.1,0,0,0-.1-.1H192.8a.054.054,0,0,1-.061-.061V53.441a.054.054,0,0,1,.061-.061h2.783a.094.094,0,0,0,.1-.1v-.638a.1.1,0,0,0-.1-.1H192.8a.054.054,0,0,1-.061-.06V50.456a.054.054,0,0,1,.061-.061h3.278a.1.1,0,0,0,.1-.1v-.638a.1.1,0,0,0-.1-.1h-4.139a.1.1,0,0,0-.1.1Zm-9.5-.8v-5.08a.054.054,0,0,1,.06-.061h1.266c.83,0,1.346.274,1.569.942a5.038,5.038,0,0,1,.142,1.66,5.033,5.033,0,0,1-.142,1.659c-.223.668-.739.942-1.569.942H182.4a.054.054,0,0,1-.06-.061m-.9.8a.1.1,0,0,0,.1.1h2.318A2.112,2.112,0,0,0,186.1,54.97,5.935,5.935,0,0,0,186.286,53a5.94,5.94,0,0,0-.182-1.975,2.114,2.114,0,0,0-2.247-1.467h-2.318a.1.1,0,0,0-.1.1Z" transform="translate(2156.484 206.166)" fill="#373435"/><path d="M273.273,64.52a.085.085,0,0,0,.09.09h.563a.085.085,0,0,0,.09-.09V59.977h.026l2.764,4.543a.151.151,0,0,0,.152.09h.572a.084.084,0,0,0,.09-.09v-5.9a.084.084,0,0,0-.09-.09h-.563a.084.084,0,0,0-.089.09v4.56h-.037l-2.754-4.56a.144.144,0,0,0-.151-.09h-.573a.085.085,0,0,0-.09.09Zm-8.073-.554a1.236,1.236,0,0,1-1.287-.9,8.421,8.421,0,0,1,0-2.986,1.376,1.376,0,0,1,2.584,0,8.337,8.337,0,0,1,0,2.986,1.239,1.239,0,0,1-1.3.9m0,.742a2.01,2.01,0,0,0,2.075-1.421,5.244,5.244,0,0,0,.161-1.717,5.244,5.244,0,0,0-.161-1.717,2.218,2.218,0,0,0-4.14,0,5.191,5.191,0,0,0-.162,1.717,5.191,5.191,0,0,0,.162,1.717,2,2,0,0,0,2.065,1.421m-8.86-.188a.085.085,0,0,0,.09.09h.616a.084.084,0,0,0,.09-.09v-5.9a.084.084,0,0,0-.09-.09h-.616a.085.085,0,0,0-.09.09Zm-7.993.188c1.467,0,2.218-.769,2.218-1.833,0-.992-.6-1.538-1.788-1.7l-.3-.045c-.939-.125-1.278-.465-1.278-.974,0-.581.411-.984,1.153-.984a2.7,2.7,0,0,1,1.467.456.087.087,0,0,0,.125-.018l.3-.491a.082.082,0,0,0-.018-.127,3.239,3.239,0,0,0-1.851-.562A1.77,1.77,0,0,0,246.4,60.21c0,.957.608,1.52,1.788,1.682l.3.044c.974.127,1.27.475,1.27.993,0,.616-.5,1.037-1.342,1.037a2.8,2.8,0,0,1-1.7-.626.081.081,0,0,0-.125.008l-.393.465a.1.1,0,0,0,.008.135,3.346,3.346,0,0,0,2.137.759m-9.834,0c1.467,0,2.218-.769,2.218-1.833,0-.992-.6-1.538-1.788-1.7l-.3-.045c-.939-.125-1.279-.465-1.279-.974,0-.581.411-.984,1.154-.984a2.69,2.69,0,0,1,1.466.456.089.089,0,0,0,.127-.018l.3-.491a.084.084,0,0,0-.018-.127,3.24,3.24,0,0,0-1.852-.562,1.769,1.769,0,0,0-1.984,1.779c0,.957.608,1.52,1.788,1.682l.3.044c.976.127,1.27.475,1.27.993,0,.616-.5,1.037-1.34,1.037a2.8,2.8,0,0,1-1.7-.626.081.081,0,0,0-.125.008l-.393.465a.1.1,0,0,0,.01.135,3.34,3.34,0,0,0,2.137.759m-8.689-.188a.084.084,0,0,0,.09.09h.616a.084.084,0,0,0,.09-.09v-5.9a.084.084,0,0,0-.09-.09h-.616a.084.084,0,0,0-.09.09Zm-11.3,0a.084.084,0,0,0,.09.09h.563a.084.084,0,0,0,.088-.09V60.29h.027l1.512,3.345a.157.157,0,0,0,.169.108h.358a.155.155,0,0,0,.162-.108L223,60.29h.027v4.23a.084.084,0,0,0,.088.09h.563a.084.084,0,0,0,.09-.09v-5.9a.084.084,0,0,0-.09-.09H223.1a.137.137,0,0,0-.143.09l-1.78,4.095h-.026l-1.815-4.095a.137.137,0,0,0-.143-.09h-.581a.084.084,0,0,0-.09.09Zm-11.3,0a.084.084,0,0,0,.088.09h.565a.084.084,0,0,0,.088-.09V60.29h.027l1.511,3.345a.158.158,0,0,0,.17.108h.358a.153.153,0,0,0,.161-.108L211.7,60.29h.027v4.23a.084.084,0,0,0,.088.09h.563a.084.084,0,0,0,.09-.09v-5.9a.084.084,0,0,0-.09-.09H211.8a.137.137,0,0,0-.143.09l-1.78,4.095h-.026l-1.815-4.095a.137.137,0,0,0-.143-.09h-.582a.084.084,0,0,0-.088.09Zm-8.073-.554a1.235,1.235,0,0,1-1.287-.9,8.339,8.339,0,0,1,0-2.986,1.376,1.376,0,0,1,2.584,0,8.424,8.424,0,0,1,0,2.986,1.24,1.24,0,0,1-1.3.9m0,.742a2.009,2.009,0,0,0,2.074-1.421,5.19,5.19,0,0,0,.162-1.717,5.19,5.19,0,0,0-.162-1.717,2.218,2.218,0,0,0-4.14,0,5.244,5.244,0,0,0-.161,1.717,5.244,5.244,0,0,0,.161,1.717,2.006,2.006,0,0,0,2.066,1.421m-11.677-1.43a1.955,1.955,0,0,0,2.021,1.43,2.029,2.029,0,0,0,1.949-1.225.087.087,0,0,0-.035-.116l-.536-.26a.088.088,0,0,0-.125.045,1.33,1.33,0,0,1-1.252.814,1.222,1.222,0,0,1-1.262-.894,4.99,4.99,0,0,1-.116-1.5,4.99,4.99,0,0,1,.116-1.5,1.222,1.222,0,0,1,1.262-.894,1.33,1.33,0,0,1,1.252.814.088.088,0,0,0,.125.045l.536-.26a.087.087,0,0,0,.035-.116,2.029,2.029,0,0,0-1.949-1.225,1.955,1.955,0,0,0-2.021,1.43,5.092,5.092,0,0,0-.161,1.708,5.092,5.092,0,0,0,.161,1.708" transform="translate(2158.604 209.41)" fill="#373435"/></g></svg>